<?xml version="1.0" standalone="no"?><!DOCTYPE svg PUBLIC "-//W3C//DTD SVG 1.1//EN" "http://www.w3.org/Graphics/SVG/1.1/DTD/svg11.dtd"><svg t="1673965833290" class="icon" viewBox="0 0 1024 1024" version="1.1" xmlns="http://www.w3.org/2000/svg" p-id="7133" xmlns:xlink="http://www.w3.org/1999/xlink" width="200" height="200"><path d="M548.9 79.532c-35.374-38.624-83.684-58.204-143.558-58.204-53.842 0-94.592 14.546-121.186 43.204-47.218 50.92-40.874 135.06-35.28 209.292 4.906 64.874 9.53 126.138-22.688 140.122-10.468 4.546-21.282 6.844-32.156 6.844-41.342 0-80.404-33.046-105.874-60.78-29.406-31.984-48.062-64.67-48.25-64.982-5.376-9.5-17.062-13.422-27.062-9.078-10.032 4.344-15.124 15.546-11.844 25.968 0.656 2.14 16.844 52.936 52.374 104.264 48.75 70.468 110.56 107.716 178.716 107.716 16.406 0 33.374-2.172 50.406-6.438 45.842-11.452 77.342-36.436 96.31-76.388 15.656-32.952 20.156-71.436 24.124-105.39 8.532-73.31 16.28-101.014 64.124-101.014 42.312 0 90.56 54.328 105.56 75.234a21.352 21.352 0 0 0 22.968 8.188 21.36 21.36 0 0 0 15.656-18.718c0.504-5.656 11.316-139.436-62.34-219.84z" fill="#ED5564" p-id="7134"></path><path d="M284.156 85.876c26.592-28.67 67.342-43.202 121.186-43.202 59.874 0 108.184 19.578 143.558 58.186 51.688 56.42 61.782 139.09 63.032 185.372 1.032-36.516-1.906-139.982-63.032-206.7-35.374-38.624-83.684-58.204-143.558-58.204-53.842 0-94.592 14.546-121.186 43.204-33.656 36.296-40.092 89.466-39 143.904 1.064-46.766 9.75-91.03 39-122.56zM2.598 316.7a21.238 21.238 0 0 1 10.25-9.422c10-4.344 21.686-0.422 27.062 9.078 0.188 0.312 18.844 33.014 48.25 65 25.468 27.718 64.53 60.78 105.874 60.78 10.876 0 21.688-2.312 32.156-6.858 22.75-9.876 27.124-43.342 26-85.014-1 31.468-7.28 55.562-26 63.686-10.468 4.546-21.282 6.844-32.156 6.844-41.342 0-80.404-33.046-105.874-60.78-29.406-31.984-48.062-64.67-48.25-64.982-5.376-9.5-17.062-13.422-27.062-9.078-10.032 4.344-15.124 15.546-11.844 25.968 0.094 0.356 0.626 2.028 1.594 4.778z" fill="#FFFFFF" opacity=".2" p-id="7135"></path><path d="M988.862 870.926c-19.468-22.25-49.906-45.968-92.874-72.312v-133.406l21.248-256.384c0.124-1.454 0.094-2.922-0.062-4.36-4.436-36.016-35.404-73.578-84.996-103.092-47.718-28.422-104.906-44.718-156.874-44.718-35.594 0-67.624 7.39-95.28 21.984-46.844 24.718-82.374 53.342-105.56 85.076-21.03 28.734-32.718 60.968-34.718 95.764-3.594 62.078 23.968 123.108 46.124 172.14 15.656 34.652 31.81 70.464 26.906 87.934-22 78.5-81.592 163.25-82.186 164.094-4.812 6.812-5.25 15.808-1.062 23.028s12.188 11.344 20.5 10.562c27.686-2.688 54.53-4 79.81-4 129.624 0 201.622 34.938 254.184 60.438 32.032 15.562 59.688 29 89.56 29 27.188 0 55.748-4.094 78.342-11.188 34-10.624 54.438-27.624 60.718-50.438 5.97-21.688-2.03-45.31-23.78-70.122z" fill="#CCD1D9" p-id="7136"></path><path d="M895.988 407.058L661.336 533.32v42.672l213.308 149.308s127.998-118.058 127.998-170.622c0-52.592-106.654-147.62-106.654-147.62z" fill="#434A54" p-id="7137"></path><path d="M965.33 447.056c-27.218-30.952-54.03-54.92-55.154-55.92a21.34 21.34 0 0 0-24.312-2.86l-128.592 69.186c-0.032 0.032-0.094 0.062-0.124 0.078l-105.936 57a21.34 21.34 0 0 0-11.218 18.782v42.672c0 6.968 3.406 13.5 9.094 17.468l213.34 149.34a21.454 21.454 0 0 0 12.218 3.876c5.218 0 10.406-1.938 14.468-5.688 1.344-1.218 33.154-30.656 65.498-67.124 29.782-33.59 69.376-82.496 69.376-119.184-0.002-27.55-19.19-62.752-58.658-107.626z m-72.686-13.968c10 9.53 25.53 24.936 40.904 42.452 19.312 21.984 33.594 42.108 41.312 57.78h-46.906l-63.966-84.812 28.656-15.42z m-99.654 209.03l49.656-66.124h29.966l-62.966 77.782-16.656-11.658z m-96.374-67.47c2.312 0.844 4.782 1.344 7.376 1.344h85.282l-31.282 41.624-61.376-42.968z m65.312-71.232l24.75 29.906h-80.344l55.594-29.906z m64.062-34.454l48.53 64.358h-32.498l-41.782-50.514 25.75-13.844z m-143.342 85.718v-8.624l2.468-1.312a21.26 21.26 0 0 0-2.468 9.936c0 5.218 1.906 10 5.032 13.75l-5.032-3.562v-10.188z m240.244 90.624c-19.03 21.496-38.28 40.808-50.31 52.528l-27.904-19.532 82.808-102.308h46.656c-7.344 14.25-22 36.312-51.25 69.312z" fill="#E6E9ED" p-id="7138"></path><path d="M703.99 554.68c0 23.562-19.092 42.624-42.654 42.624s-42.686-19.062-42.686-42.624c0-23.578 19.124-42.686 42.686-42.686s42.654 19.108 42.654 42.686z" fill="#434A54" p-id="7139"></path><path d="M895.988 798.614v59.5l46.31-28.562c-13.436-9.938-28.812-20.188-46.31-30.938z" opacity=".1" p-id="7140"></path></svg>